<mxfile host="app.diagrams.net" modified="2023-05-16T19:16:36.577Z" agent="Mozilla/5.0 (Windows NT 10.0; Win64; x64; rv:109.0) Gecko/20100101 Firefox/113.0" etag="BNixg13rUde6rUQP873a" version="21.3.2">
  <diagram id="prtHgNgQTEPvFCAcTncT" name="Page-1">
    <mxGraphModel dx="1350" dy="843" grid="0" gridSize="10" guides="1" tooltips="1" connect="1" arrows="1" fold="1" page="0" pageScale="1" pageWidth="827" pageHeight="1169" math="0" shadow="0">
      <root>
        <mxCell id="0" />
        <mxCell id="1" parent="0" />
        <mxCell id="IY3fmP8SClLRD5BfS2_E-16" value="Mayo Hospital" style="swimlane;html=1;childLayout=stackLayout;resizeParent=1;resizeParentMax=0;horizontal=0;startSize=20;horizontalStack=0;whiteSpace=wrap;labelBackgroundColor=none;" parent="1" vertex="1">
          <mxGeometry x="359" y="471" width="2013" height="1349" as="geometry" />
        </mxCell>
        <mxCell id="IY3fmP8SClLRD5BfS2_E-17" value="Medical Worker" style="swimlane;html=1;startSize=20;horizontal=0;labelBackgroundColor=none;" parent="IY3fmP8SClLRD5BfS2_E-16" vertex="1">
          <mxGeometry x="20" width="1993" height="430" as="geometry" />
        </mxCell>
        <mxCell id="IY3fmP8SClLRD5BfS2_E-31" value="" style="edgeStyle=orthogonalEdgeStyle;rounded=0;orthogonalLoop=1;jettySize=auto;html=1;labelBackgroundColor=none;fontColor=default;" parent="IY3fmP8SClLRD5BfS2_E-17" source="IY3fmP8SClLRD5BfS2_E-26" target="IY3fmP8SClLRD5BfS2_E-30" edge="1">
          <mxGeometry relative="1" as="geometry" />
        </mxCell>
        <mxCell id="IY3fmP8SClLRD5BfS2_E-26" value="" style="points=[[0.145,0.145,0],[0.5,0,0],[0.855,0.145,0],[1,0.5,0],[0.855,0.855,0],[0.5,1,0],[0.145,0.855,0],[0,0.5,0]];shape=mxgraph.bpmn.event;html=1;verticalLabelPosition=bottom;labelBackgroundColor=none;verticalAlign=top;align=center;perimeter=ellipsePerimeter;outlineConnect=0;aspect=fixed;outline=standard;symbol=general;" parent="IY3fmP8SClLRD5BfS2_E-17" vertex="1">
          <mxGeometry x="85" y="139" width="50" height="50" as="geometry" />
        </mxCell>
        <mxCell id="IY3fmP8SClLRD5BfS2_E-34" value="" style="edgeStyle=orthogonalEdgeStyle;rounded=0;orthogonalLoop=1;jettySize=auto;html=1;labelBackgroundColor=none;fontColor=default;" parent="IY3fmP8SClLRD5BfS2_E-17" source="IY3fmP8SClLRD5BfS2_E-30" target="IY3fmP8SClLRD5BfS2_E-33" edge="1">
          <mxGeometry relative="1" as="geometry" />
        </mxCell>
        <mxCell id="IY3fmP8SClLRD5BfS2_E-30" value="Identify Need of Resource" style="rounded=1;whiteSpace=wrap;html=1;verticalAlign=top;labelBackgroundColor=none;align=center;" parent="IY3fmP8SClLRD5BfS2_E-17" vertex="1">
          <mxGeometry x="184" y="134" width="120" height="60" as="geometry" />
        </mxCell>
        <mxCell id="IY3fmP8SClLRD5BfS2_E-32" value="Start" style="text;html=1;align=center;verticalAlign=middle;resizable=0;points=[];autosize=1;strokeColor=none;fillColor=none;labelBackgroundColor=none;" parent="IY3fmP8SClLRD5BfS2_E-17" vertex="1">
          <mxGeometry x="88.5" y="113" width="43" height="26" as="geometry" />
        </mxCell>
        <mxCell id="IY3fmP8SClLRD5BfS2_E-36" value="" style="edgeStyle=orthogonalEdgeStyle;rounded=0;orthogonalLoop=1;jettySize=auto;html=1;labelBackgroundColor=none;fontColor=default;" parent="IY3fmP8SClLRD5BfS2_E-17" source="IY3fmP8SClLRD5BfS2_E-33" target="IY3fmP8SClLRD5BfS2_E-35" edge="1">
          <mxGeometry relative="1" as="geometry" />
        </mxCell>
        <mxCell id="IY3fmP8SClLRD5BfS2_E-33" value="&amp;nbsp;&amp;nbsp;&amp;nbsp;&amp;nbsp;&amp;nbsp;&amp;nbsp;&amp;nbsp;&amp;nbsp;&amp;nbsp;&amp;nbsp;&amp;nbsp;&amp;nbsp;&amp;nbsp;&amp;nbsp;&amp;nbsp;&amp;nbsp;&amp;nbsp;&amp;nbsp;&amp;nbsp;&amp;nbsp;&amp;nbsp;&amp;nbsp;&amp;nbsp;&amp;nbsp;&amp;nbsp;&amp;nbsp;&amp;nbsp;&amp;nbsp;&amp;nbsp;&amp;nbsp;&amp;nbsp;&amp;nbsp;&amp;nbsp;&amp;nbsp;&amp;nbsp;&amp;nbsp;&amp;nbsp; Check Availability" style="whiteSpace=wrap;html=1;verticalAlign=top;rounded=1;labelBackgroundColor=none;" parent="IY3fmP8SClLRD5BfS2_E-17" vertex="1">
          <mxGeometry x="384" y="134" width="120" height="60" as="geometry" />
        </mxCell>
        <mxCell id="IY3fmP8SClLRD5BfS2_E-61" value="" style="edgeStyle=orthogonalEdgeStyle;rounded=0;orthogonalLoop=1;jettySize=auto;html=1;labelBackgroundColor=none;fontColor=default;" parent="IY3fmP8SClLRD5BfS2_E-17" source="IY3fmP8SClLRD5BfS2_E-35" target="IY3fmP8SClLRD5BfS2_E-60" edge="1">
          <mxGeometry relative="1" as="geometry" />
        </mxCell>
        <mxCell id="IY3fmP8SClLRD5BfS2_E-35" value="" style="points=[[0.25,0.25,0],[0.5,0,0],[0.75,0.25,0],[1,0.5,0],[0.75,0.75,0],[0.5,1,0],[0.25,0.75,0],[0,0.5,0]];shape=mxgraph.bpmn.gateway2;html=1;verticalLabelPosition=bottom;labelBackgroundColor=none;verticalAlign=top;align=center;perimeter=rhombusPerimeter;outlineConnect=0;outline=none;symbol=none;gwType=exclusive;" parent="IY3fmP8SClLRD5BfS2_E-17" vertex="1">
          <mxGeometry x="570" y="139" width="50" height="50" as="geometry" />
        </mxCell>
        <mxCell id="IY3fmP8SClLRD5BfS2_E-41" value="available" style="text;html=1;align=center;verticalAlign=middle;resizable=0;points=[];autosize=1;strokeColor=none;fillColor=none;labelBackgroundColor=none;" parent="IY3fmP8SClLRD5BfS2_E-17" vertex="1">
          <mxGeometry x="630" y="134" width="63" height="26" as="geometry" />
        </mxCell>
        <mxCell id="IY3fmP8SClLRD5BfS2_E-42" value="not available" style="text;html=1;align=center;verticalAlign=middle;resizable=0;points=[];autosize=1;strokeColor=none;fillColor=none;labelBackgroundColor=none;" parent="IY3fmP8SClLRD5BfS2_E-17" vertex="1">
          <mxGeometry x="512" y="186.5" width="82" height="26" as="geometry" />
        </mxCell>
        <mxCell id="IY3fmP8SClLRD5BfS2_E-60" value="Notify HOD" style="points=[[0.25,0,0],[0.5,0,0],[0.75,0,0],[1,0.25,0],[1,0.5,0],[1,0.75,0],[0.75,1,0],[0.5,1,0],[0.25,1,0],[0,0.75,0],[0,0.5,0],[0,0.25,0]];shape=mxgraph.bpmn.task;whiteSpace=wrap;rectStyle=rounded;size=10;html=1;container=1;expand=0;collapsible=0;taskMarker=abstract;labelBackgroundColor=none;" parent="IY3fmP8SClLRD5BfS2_E-17" vertex="1">
          <mxGeometry x="726" y="130.5" width="120" height="67" as="geometry" />
        </mxCell>
        <mxCell id="IY3fmP8SClLRD5BfS2_E-69" value="" style="edgeStyle=orthogonalEdgeStyle;rounded=0;orthogonalLoop=1;jettySize=auto;html=1;entryX=0;entryY=0.5;entryDx=0;entryDy=0;entryPerimeter=0;labelBackgroundColor=none;fontColor=default;" parent="IY3fmP8SClLRD5BfS2_E-17" source="IY3fmP8SClLRD5BfS2_E-66" target="IY3fmP8SClLRD5BfS2_E-264" edge="1">
          <mxGeometry relative="1" as="geometry">
            <mxPoint x="1849" y="161.5" as="targetPoint" />
          </mxGeometry>
        </mxCell>
        <mxCell id="IY3fmP8SClLRD5BfS2_E-66" value="Use resources" style="points=[[0.25,0,0],[0.5,0,0],[0.75,0,0],[1,0.25,0],[1,0.5,0],[1,0.75,0],[0.75,1,0],[0.5,1,0],[0.25,1,0],[0,0.75,0],[0,0.5,0],[0,0.25,0]];shape=mxgraph.bpmn.task;whiteSpace=wrap;rectStyle=rounded;size=10;html=1;container=1;expand=0;collapsible=0;taskMarker=abstract;labelBackgroundColor=none;" parent="IY3fmP8SClLRD5BfS2_E-17" vertex="1">
          <mxGeometry x="1634" y="134" width="120" height="55" as="geometry" />
        </mxCell>
        <mxCell id="IY3fmP8SClLRD5BfS2_E-87" value="" style="edgeStyle=orthogonalEdgeStyle;rounded=0;orthogonalLoop=1;jettySize=auto;html=1;labelBackgroundColor=none;fontColor=default;" parent="IY3fmP8SClLRD5BfS2_E-17" source="IY3fmP8SClLRD5BfS2_E-77" target="IY3fmP8SClLRD5BfS2_E-86" edge="1">
          <mxGeometry relative="1" as="geometry" />
        </mxCell>
        <mxCell id="IY3fmP8SClLRD5BfS2_E-77" value="Make Resource Request Application" style="points=[[0.25,0,0],[0.5,0,0],[0.75,0,0],[1,0.25,0],[1,0.5,0],[1,0.75,0],[0.75,1,0],[0.5,1,0],[0.25,1,0],[0,0.75,0],[0,0.5,0],[0,0.25,0]];shape=mxgraph.bpmn.task;whiteSpace=wrap;rectStyle=rounded;size=10;html=1;container=1;expand=0;collapsible=0;taskMarker=abstract;labelBackgroundColor=none;" parent="IY3fmP8SClLRD5BfS2_E-17" vertex="1">
          <mxGeometry x="535" y="230" width="120" height="67" as="geometry" />
        </mxCell>
        <mxCell id="IY3fmP8SClLRD5BfS2_E-81" value="" style="endArrow=classic;html=1;rounded=0;exitX=0.5;exitY=1;exitDx=0;exitDy=0;exitPerimeter=0;entryX=0.5;entryY=0;entryDx=0;entryDy=0;entryPerimeter=0;labelBackgroundColor=none;fontColor=default;" parent="IY3fmP8SClLRD5BfS2_E-17" source="IY3fmP8SClLRD5BfS2_E-35" target="IY3fmP8SClLRD5BfS2_E-77" edge="1">
          <mxGeometry width="50" height="50" relative="1" as="geometry">
            <mxPoint x="797" y="336" as="sourcePoint" />
            <mxPoint x="847" y="286" as="targetPoint" />
          </mxGeometry>
        </mxCell>
        <mxCell id="IY3fmP8SClLRD5BfS2_E-86" value="Send Application to HOD" style="rounded=1;whiteSpace=wrap;html=1;labelBackgroundColor=none;" parent="IY3fmP8SClLRD5BfS2_E-17" vertex="1">
          <mxGeometry x="535" y="339" width="120" height="60" as="geometry" />
        </mxCell>
        <mxCell id="IY3fmP8SClLRD5BfS2_E-169" value="" style="shape=datastore;html=1;labelPosition=center;verticalLabelPosition=bottom;align=center;verticalAlign=top;labelBackgroundColor=none;" parent="IY3fmP8SClLRD5BfS2_E-17" vertex="1">
          <mxGeometry x="382" y="9.5" width="124" height="85" as="geometry" />
        </mxCell>
        <mxCell id="IY3fmP8SClLRD5BfS2_E-171" value="" style="dashed=1;dashPattern=8 4;endArrow=blockThin;endFill=1;startArrow=oval;startFill=0;endSize=6;startSize=4;html=1;rounded=0;entryX=0.5;entryY=1;entryDx=0;entryDy=0;labelBackgroundColor=none;fontColor=default;" parent="IY3fmP8SClLRD5BfS2_E-17" source="IY3fmP8SClLRD5BfS2_E-33" target="IY3fmP8SClLRD5BfS2_E-169" edge="1">
          <mxGeometry width="160" relative="1" as="geometry">
            <mxPoint x="903" y="269" as="sourcePoint" />
            <mxPoint x="1063" y="269" as="targetPoint" />
          </mxGeometry>
        </mxCell>
        <mxCell id="IY3fmP8SClLRD5BfS2_E-172" value="Inventory System" style="text;html=1;align=center;verticalAlign=middle;resizable=0;points=[];autosize=1;strokeColor=none;fillColor=none;labelBackgroundColor=none;" parent="IY3fmP8SClLRD5BfS2_E-17" vertex="1">
          <mxGeometry x="388" y="48" width="111" height="26" as="geometry" />
        </mxCell>
        <mxCell id="IY3fmP8SClLRD5BfS2_E-264" value="" style="points=[[0.145,0.145,0],[0.5,0,0],[0.855,0.145,0],[1,0.5,0],[0.855,0.855,0],[0.5,1,0],[0.145,0.855,0],[0,0.5,0]];shape=mxgraph.bpmn.event;html=1;verticalLabelPosition=bottom;labelBackgroundColor=none;verticalAlign=top;align=center;perimeter=ellipsePerimeter;outlineConnect=0;aspect=fixed;outline=end;symbol=terminate2;" parent="IY3fmP8SClLRD5BfS2_E-17" vertex="1">
          <mxGeometry x="1861" y="136.5" width="50" height="50" as="geometry" />
        </mxCell>
        <mxCell id="IY3fmP8SClLRD5BfS2_E-45" value="Use resources" style="rounded=1;whiteSpace=wrap;html=1;verticalAlign=top;labelBackgroundColor=none;arcSize=14;fillStyle=hatch;" parent="IY3fmP8SClLRD5BfS2_E-17" vertex="1">
          <mxGeometry x="1119" y="212.5" width="120" height="60" as="geometry" />
        </mxCell>
        <mxCell id="WIWOIlr0f5QlMzEuFdTS-1" value="Check Availability" style="rounded=1;whiteSpace=wrap;html=1;labelBackgroundColor=none;" parent="IY3fmP8SClLRD5BfS2_E-17" vertex="1">
          <mxGeometry x="384" y="134" width="120" height="60" as="geometry" />
        </mxCell>
        <mxCell id="WIWOIlr0f5QlMzEuFdTS-2" value="Use resources" style="rounded=1;whiteSpace=wrap;html=1;labelBackgroundColor=none;" parent="IY3fmP8SClLRD5BfS2_E-17" vertex="1">
          <mxGeometry x="1119" y="212.5" width="120" height="60" as="geometry" />
        </mxCell>
        <mxCell id="IY3fmP8SClLRD5BfS2_E-18" value="Department Head" style="swimlane;html=1;startSize=20;horizontal=0;labelBackgroundColor=none;" parent="IY3fmP8SClLRD5BfS2_E-16" vertex="1">
          <mxGeometry x="20" y="430" width="1993" height="204" as="geometry" />
        </mxCell>
        <mxCell id="IY3fmP8SClLRD5BfS2_E-37" value="&amp;nbsp;&amp;nbsp;&amp;nbsp;&amp;nbsp;&amp;nbsp;&amp;nbsp;&amp;nbsp;&amp;nbsp;&amp;nbsp;&amp;nbsp;&amp;nbsp;&amp;nbsp;&amp;nbsp;&amp;nbsp;&amp;nbsp;&amp;nbsp;&amp;nbsp;&amp;nbsp;&amp;nbsp;&amp;nbsp;&amp;nbsp;&amp;nbsp;&amp;nbsp;&amp;nbsp;&amp;nbsp;&amp;nbsp;&amp;nbsp;&amp;nbsp;&amp;nbsp;&amp;nbsp;&amp;nbsp;&amp;nbsp; Assign Resources" style="rounded=1;whiteSpace=wrap;html=1;verticalAlign=top;labelBackgroundColor=none;arcSize=14;" parent="IY3fmP8SClLRD5BfS2_E-18" vertex="1">
          <mxGeometry x="725" y="42.5" width="120" height="60" as="geometry" />
        </mxCell>
        <mxCell id="IY3fmP8SClLRD5BfS2_E-43" value="&amp;nbsp;&amp;nbsp;&amp;nbsp;&amp;nbsp;&amp;nbsp;&amp;nbsp;&amp;nbsp;&amp;nbsp;&amp;nbsp;&amp;nbsp;&amp;nbsp;&amp;nbsp;&amp;nbsp;&amp;nbsp;&amp;nbsp;&amp;nbsp;&amp;nbsp;&amp;nbsp;&amp;nbsp;&amp;nbsp;&amp;nbsp;&amp;nbsp;&amp;nbsp;&amp;nbsp; Schedule Resource Use" style="whiteSpace=wrap;html=1;verticalAlign=top;rounded=1;labelBackgroundColor=none;arcSize=14;" parent="IY3fmP8SClLRD5BfS2_E-18" vertex="1">
          <mxGeometry x="925" y="42.5" width="120" height="60" as="geometry" />
        </mxCell>
        <mxCell id="IY3fmP8SClLRD5BfS2_E-44" value="" style="edgeStyle=orthogonalEdgeStyle;rounded=0;orthogonalLoop=1;jettySize=auto;html=1;labelBackgroundColor=none;fontColor=default;" parent="IY3fmP8SClLRD5BfS2_E-18" source="IY3fmP8SClLRD5BfS2_E-37" target="IY3fmP8SClLRD5BfS2_E-43" edge="1">
          <mxGeometry relative="1" as="geometry" />
        </mxCell>
        <mxCell id="IY3fmP8SClLRD5BfS2_E-47" value="Check resource stock w.r.t task" style="whiteSpace=wrap;html=1;verticalAlign=top;rounded=1;labelBackgroundColor=none;arcSize=14;fillStyle=hatch;" parent="IY3fmP8SClLRD5BfS2_E-18" vertex="1">
          <mxGeometry x="1298" y="42.5" width="120" height="60" as="geometry" />
        </mxCell>
        <mxCell id="IY3fmP8SClLRD5BfS2_E-51" value="" style="points=[[0.25,0.25,0],[0.5,0,0],[0.75,0.25,0],[1,0.5,0],[0.75,0.75,0],[0.5,1,0],[0.25,0.75,0],[0,0.5,0]];shape=mxgraph.bpmn.gateway2;html=1;verticalLabelPosition=bottom;labelBackgroundColor=none;verticalAlign=top;align=center;perimeter=rhombusPerimeter;outlineConnect=0;outline=none;symbol=none;gwType=exclusive;" parent="IY3fmP8SClLRD5BfS2_E-18" vertex="1">
          <mxGeometry x="1530" y="47.5" width="50" height="50" as="geometry" />
        </mxCell>
        <mxCell id="IY3fmP8SClLRD5BfS2_E-52" value="" style="edgeStyle=orthogonalEdgeStyle;rounded=0;orthogonalLoop=1;jettySize=auto;html=1;labelBackgroundColor=none;fontColor=default;" parent="IY3fmP8SClLRD5BfS2_E-18" source="IY3fmP8SClLRD5BfS2_E-47" target="IY3fmP8SClLRD5BfS2_E-51" edge="1">
          <mxGeometry relative="1" as="geometry" />
        </mxCell>
        <mxCell id="IY3fmP8SClLRD5BfS2_E-58" value="requirements not met " style="text;html=1;align=center;verticalAlign=middle;resizable=0;points=[];autosize=1;strokeColor=none;fillColor=none;labelBackgroundColor=none;" parent="IY3fmP8SClLRD5BfS2_E-18" vertex="1">
          <mxGeometry x="1551" y="102.5" width="129" height="26" as="geometry" />
        </mxCell>
        <mxCell id="IY3fmP8SClLRD5BfS2_E-57" value="task resource requirements met " style="text;html=1;align=center;verticalAlign=middle;resizable=0;points=[];autosize=1;strokeColor=none;fillColor=none;labelBackgroundColor=none;" parent="IY3fmP8SClLRD5BfS2_E-18" vertex="1">
          <mxGeometry x="1507" y="18" width="184" height="26" as="geometry" />
        </mxCell>
        <mxCell id="IY3fmP8SClLRD5BfS2_E-75" value="&amp;nbsp;Escalate Resource Request " style="points=[[0.25,0,0],[0.5,0,0],[0.75,0,0],[1,0.25,0],[1,0.5,0],[1,0.75,0],[0.75,1,0],[0.5,1,0],[0.25,1,0],[0,0.75,0],[0,0.5,0],[0,0.25,0]];shape=mxgraph.bpmn.task;whiteSpace=wrap;rectStyle=rounded;size=10;html=1;container=1;expand=0;collapsible=0;taskMarker=abstract;labelBackgroundColor=none;" parent="IY3fmP8SClLRD5BfS2_E-18" vertex="1">
          <mxGeometry x="534" y="118" width="120" height="60" as="geometry" />
        </mxCell>
        <mxCell id="IY3fmP8SClLRD5BfS2_E-56" value="" style="edgeStyle=orthogonalEdgeStyle;rounded=0;orthogonalLoop=1;jettySize=auto;html=1;entryX=1;entryY=0.5;entryDx=0;entryDy=0;entryPerimeter=0;labelBackgroundColor=none;fontColor=default;" parent="IY3fmP8SClLRD5BfS2_E-18" source="IY3fmP8SClLRD5BfS2_E-51" target="IY3fmP8SClLRD5BfS2_E-75" edge="1">
          <mxGeometry relative="1" as="geometry">
            <mxPoint x="657" y="149" as="targetPoint" />
            <Array as="points">
              <mxPoint x="1555" y="149" />
              <mxPoint x="654" y="149" />
            </Array>
          </mxGeometry>
        </mxCell>
        <mxCell id="IY3fmP8SClLRD5BfS2_E-82" value="" style="points=[[0.145,0.145,0],[0.5,0,0],[0.855,0.145,0],[1,0.5,0],[0.855,0.855,0],[0.5,1,0],[0.145,0.855,0],[0,0.5,0]];shape=mxgraph.bpmn.event;html=1;verticalLabelPosition=bottom;labelBackgroundColor=none;verticalAlign=top;align=center;perimeter=ellipsePerimeter;outlineConnect=0;aspect=fixed;outline=standard;symbol=message;" parent="IY3fmP8SClLRD5BfS2_E-18" vertex="1">
          <mxGeometry x="572" y="18" width="44" height="44" as="geometry" />
        </mxCell>
        <mxCell id="IY3fmP8SClLRD5BfS2_E-84" value="" style="endArrow=classic;html=1;rounded=0;exitX=0.5;exitY=1;exitDx=0;exitDy=0;exitPerimeter=0;entryX=0.5;entryY=0;entryDx=0;entryDy=0;entryPerimeter=0;labelBackgroundColor=none;fontColor=default;" parent="IY3fmP8SClLRD5BfS2_E-18" source="IY3fmP8SClLRD5BfS2_E-82" target="IY3fmP8SClLRD5BfS2_E-75" edge="1">
          <mxGeometry width="50" height="50" relative="1" as="geometry">
            <mxPoint x="675" y="-16" as="sourcePoint" />
            <mxPoint x="725" y="-66" as="targetPoint" />
          </mxGeometry>
        </mxCell>
        <mxCell id="IY3fmP8SClLRD5BfS2_E-85" value="Application Received" style="text;html=1;align=center;verticalAlign=middle;resizable=0;points=[];autosize=1;strokeColor=none;fillColor=none;labelBackgroundColor=none;" parent="IY3fmP8SClLRD5BfS2_E-18" vertex="1">
          <mxGeometry x="443" y="27" width="126" height="26" as="geometry" />
        </mxCell>
        <mxCell id="WIWOIlr0f5QlMzEuFdTS-5" value="Check resource stock w.r.t task" style="rounded=1;whiteSpace=wrap;html=1;labelBackgroundColor=none;" parent="IY3fmP8SClLRD5BfS2_E-18" vertex="1">
          <mxGeometry x="1298" y="42.5" width="120" height="60" as="geometry" />
        </mxCell>
        <mxCell id="IY3fmP8SClLRD5BfS2_E-23" value="Resource Manager" style="swimlane;startSize=20;horizontal=0;html=1;whiteSpace=wrap;labelBackgroundColor=none;" parent="IY3fmP8SClLRD5BfS2_E-16" vertex="1">
          <mxGeometry x="20" y="634" width="1993" height="234" as="geometry" />
        </mxCell>
        <mxCell id="IY3fmP8SClLRD5BfS2_E-100" value="" style="edgeStyle=orthogonalEdgeStyle;rounded=0;orthogonalLoop=1;jettySize=auto;html=1;labelBackgroundColor=none;fontColor=default;" parent="IY3fmP8SClLRD5BfS2_E-23" source="IY3fmP8SClLRD5BfS2_E-89" target="IY3fmP8SClLRD5BfS2_E-99" edge="1">
          <mxGeometry relative="1" as="geometry" />
        </mxCell>
        <mxCell id="IY3fmP8SClLRD5BfS2_E-89" value="" style="points=[[0.145,0.145,0],[0.5,0,0],[0.855,0.145,0],[1,0.5,0],[0.855,0.855,0],[0.5,1,0],[0.145,0.855,0],[0,0.5,0]];shape=mxgraph.bpmn.event;html=1;verticalLabelPosition=bottom;labelBackgroundColor=none;verticalAlign=top;align=center;perimeter=ellipsePerimeter;outlineConnect=0;aspect=fixed;outline=standard;symbol=message;" parent="IY3fmP8SClLRD5BfS2_E-23" vertex="1">
          <mxGeometry x="572" y="46" width="44" height="44" as="geometry" />
        </mxCell>
        <mxCell id="IY3fmP8SClLRD5BfS2_E-91" value="Application Received" style="text;html=1;align=center;verticalAlign=middle;resizable=0;points=[];autosize=1;strokeColor=none;fillColor=none;labelBackgroundColor=none;" parent="IY3fmP8SClLRD5BfS2_E-23" vertex="1">
          <mxGeometry x="446" y="15" width="126" height="26" as="geometry" />
        </mxCell>
        <mxCell id="IY3fmP8SClLRD5BfS2_E-103" value="" style="edgeStyle=orthogonalEdgeStyle;rounded=0;orthogonalLoop=1;jettySize=auto;html=1;entryX=0;entryY=0.5;entryDx=0;entryDy=0;entryPerimeter=0;labelBackgroundColor=none;fontColor=default;" parent="IY3fmP8SClLRD5BfS2_E-23" source="IY3fmP8SClLRD5BfS2_E-99" target="IY3fmP8SClLRD5BfS2_E-104" edge="1">
          <mxGeometry relative="1" as="geometry">
            <mxPoint x="923" y="68" as="targetPoint" />
          </mxGeometry>
        </mxCell>
        <mxCell id="IY3fmP8SClLRD5BfS2_E-99" value="Check Supply" style="rounded=1;whiteSpace=wrap;html=1;labelBackgroundColor=none;" parent="IY3fmP8SClLRD5BfS2_E-23" vertex="1">
          <mxGeometry x="723" y="38" width="120" height="60" as="geometry" />
        </mxCell>
        <mxCell id="IY3fmP8SClLRD5BfS2_E-109" value="" style="edgeStyle=orthogonalEdgeStyle;rounded=0;orthogonalLoop=1;jettySize=auto;html=1;labelBackgroundColor=none;fontColor=default;" parent="IY3fmP8SClLRD5BfS2_E-23" source="IY3fmP8SClLRD5BfS2_E-104" target="IY3fmP8SClLRD5BfS2_E-108" edge="1">
          <mxGeometry relative="1" as="geometry" />
        </mxCell>
        <mxCell id="IY3fmP8SClLRD5BfS2_E-119" value="" style="edgeStyle=orthogonalEdgeStyle;rounded=0;orthogonalLoop=1;jettySize=auto;html=1;labelBackgroundColor=none;fontColor=default;" parent="IY3fmP8SClLRD5BfS2_E-23" source="IY3fmP8SClLRD5BfS2_E-104" target="IY3fmP8SClLRD5BfS2_E-117" edge="1">
          <mxGeometry relative="1" as="geometry" />
        </mxCell>
        <mxCell id="IY3fmP8SClLRD5BfS2_E-104" value="" style="points=[[0.25,0.25,0],[0.5,0,0],[0.75,0.25,0],[1,0.5,0],[0.75,0.75,0],[0.5,1,0],[0.25,0.75,0],[0,0.5,0]];shape=mxgraph.bpmn.gateway2;html=1;verticalLabelPosition=bottom;labelBackgroundColor=none;verticalAlign=top;align=center;perimeter=rhombusPerimeter;outlineConnect=0;outline=none;symbol=none;gwType=exclusive;" parent="IY3fmP8SClLRD5BfS2_E-23" vertex="1">
          <mxGeometry x="911" y="43" width="50" height="50" as="geometry" />
        </mxCell>
        <mxCell id="IY3fmP8SClLRD5BfS2_E-108" value="Send Resources to HOD" style="rounded=1;whiteSpace=wrap;html=1;labelBackgroundColor=none;" parent="IY3fmP8SClLRD5BfS2_E-23" vertex="1">
          <mxGeometry x="1052" y="38" width="120" height="60" as="geometry" />
        </mxCell>
        <mxCell id="IY3fmP8SClLRD5BfS2_E-113" value="resources not found" style="text;html=1;align=center;verticalAlign=middle;resizable=0;points=[];autosize=1;strokeColor=none;fillColor=none;labelBackgroundColor=none;" parent="IY3fmP8SClLRD5BfS2_E-23" vertex="1">
          <mxGeometry x="817" y="108" width="122" height="26" as="geometry" />
        </mxCell>
        <mxCell id="IY3fmP8SClLRD5BfS2_E-124" value="" style="edgeStyle=orthogonalEdgeStyle;rounded=0;orthogonalLoop=1;jettySize=auto;html=1;labelBackgroundColor=none;fontColor=default;" parent="IY3fmP8SClLRD5BfS2_E-23" source="IY3fmP8SClLRD5BfS2_E-117" target="IY3fmP8SClLRD5BfS2_E-123" edge="1">
          <mxGeometry relative="1" as="geometry" />
        </mxCell>
        <mxCell id="IY3fmP8SClLRD5BfS2_E-117" value="Write Theft Report" style="rounded=1;whiteSpace=wrap;html=1;labelBackgroundColor=none;" parent="IY3fmP8SClLRD5BfS2_E-23" vertex="1">
          <mxGeometry x="876" y="149" width="120" height="60" as="geometry" />
        </mxCell>
        <mxCell id="IY3fmP8SClLRD5BfS2_E-123" value="Send Report to Hospital Admin Staff" style="whiteSpace=wrap;html=1;rounded=1;labelBackgroundColor=none;" parent="IY3fmP8SClLRD5BfS2_E-23" vertex="1">
          <mxGeometry x="1076" y="149" width="120" height="60" as="geometry" />
        </mxCell>
        <mxCell id="IY3fmP8SClLRD5BfS2_E-110" value="resources found" style="text;html=1;align=center;verticalAlign=middle;resizable=0;points=[];autosize=1;strokeColor=none;fillColor=none;labelBackgroundColor=none;" parent="IY3fmP8SClLRD5BfS2_E-23" vertex="1">
          <mxGeometry x="949" y="29" width="103" height="26" as="geometry" />
        </mxCell>
        <mxCell id="IY3fmP8SClLRD5BfS2_E-185" value="" style="shape=datastore;html=1;labelPosition=center;verticalLabelPosition=bottom;align=center;verticalAlign=top;labelBackgroundColor=none;" parent="IY3fmP8SClLRD5BfS2_E-23" vertex="1">
          <mxGeometry x="543" y="124" width="124" height="85" as="geometry" />
        </mxCell>
        <mxCell id="IY3fmP8SClLRD5BfS2_E-186" value="Hospital Supply Rooms" style="text;html=1;align=center;verticalAlign=middle;resizable=0;points=[];autosize=1;strokeColor=none;fillColor=none;labelBackgroundColor=none;" parent="IY3fmP8SClLRD5BfS2_E-23" vertex="1">
          <mxGeometry x="535" y="162.5" width="140" height="26" as="geometry" />
        </mxCell>
        <mxCell id="IY3fmP8SClLRD5BfS2_E-187" value="" style="dashed=1;dashPattern=8 4;endArrow=blockThin;endFill=1;startArrow=oval;startFill=0;endSize=6;startSize=4;html=1;rounded=0;exitX=0.5;exitY=1;exitDx=0;exitDy=0;entryX=1;entryY=0.5;entryDx=0;entryDy=0;labelBackgroundColor=none;fontColor=default;" parent="IY3fmP8SClLRD5BfS2_E-23" source="IY3fmP8SClLRD5BfS2_E-99" target="IY3fmP8SClLRD5BfS2_E-185" edge="1">
          <mxGeometry width="160" relative="1" as="geometry">
            <mxPoint x="724" y="168" as="sourcePoint" />
            <mxPoint x="724" y="129" as="targetPoint" />
            <Array as="points">
              <mxPoint x="783" y="166" />
            </Array>
          </mxGeometry>
        </mxCell>
        <mxCell id="IY3fmP8SClLRD5BfS2_E-62" style="edgeStyle=orthogonalEdgeStyle;rounded=0;orthogonalLoop=1;jettySize=auto;html=1;exitX=0.5;exitY=1;exitDx=0;exitDy=0;exitPerimeter=0;entryX=0.5;entryY=0;entryDx=0;entryDy=0;labelBackgroundColor=none;fontColor=default;" parent="IY3fmP8SClLRD5BfS2_E-16" source="IY3fmP8SClLRD5BfS2_E-60" target="IY3fmP8SClLRD5BfS2_E-37" edge="1">
          <mxGeometry relative="1" as="geometry" />
        </mxCell>
        <mxCell id="IY3fmP8SClLRD5BfS2_E-67" value="" style="edgeStyle=orthogonalEdgeStyle;rounded=0;orthogonalLoop=1;jettySize=auto;html=1;labelBackgroundColor=none;fontColor=default;" parent="IY3fmP8SClLRD5BfS2_E-16" source="IY3fmP8SClLRD5BfS2_E-51" target="IY3fmP8SClLRD5BfS2_E-66" edge="1">
          <mxGeometry relative="1" as="geometry" />
        </mxCell>
        <mxCell id="IY3fmP8SClLRD5BfS2_E-88" value="" style="edgeStyle=orthogonalEdgeStyle;rounded=0;orthogonalLoop=1;jettySize=auto;html=1;labelBackgroundColor=none;fontColor=default;" parent="IY3fmP8SClLRD5BfS2_E-16" source="IY3fmP8SClLRD5BfS2_E-86" target="IY3fmP8SClLRD5BfS2_E-82" edge="1">
          <mxGeometry relative="1" as="geometry" />
        </mxCell>
        <mxCell id="IY3fmP8SClLRD5BfS2_E-90" value="" style="edgeStyle=orthogonalEdgeStyle;rounded=0;orthogonalLoop=1;jettySize=auto;html=1;labelBackgroundColor=none;fontColor=default;" parent="IY3fmP8SClLRD5BfS2_E-16" source="IY3fmP8SClLRD5BfS2_E-75" target="IY3fmP8SClLRD5BfS2_E-89" edge="1">
          <mxGeometry relative="1" as="geometry" />
        </mxCell>
        <mxCell id="IY3fmP8SClLRD5BfS2_E-19" value="Hospital Administrator" style="swimlane;html=1;startSize=20;horizontal=0;labelBackgroundColor=none;" parent="IY3fmP8SClLRD5BfS2_E-16" vertex="1">
          <mxGeometry x="20" y="868" width="1993" height="254" as="geometry">
            <mxRectangle x="20" y="240" width="460" height="26" as="alternateBounds" />
          </mxGeometry>
        </mxCell>
        <mxCell id="IY3fmP8SClLRD5BfS2_E-126" value="" style="edgeStyle=orthogonalEdgeStyle;rounded=0;orthogonalLoop=1;jettySize=auto;html=1;entryX=0;entryY=0.5;entryDx=0;entryDy=0;labelBackgroundColor=none;fontColor=default;" parent="IY3fmP8SClLRD5BfS2_E-19" source="IY3fmP8SClLRD5BfS2_E-120" target="IY3fmP8SClLRD5BfS2_E-127" edge="1">
          <mxGeometry relative="1" as="geometry">
            <mxPoint x="1200" y="95" as="targetPoint" />
          </mxGeometry>
        </mxCell>
        <mxCell id="IY3fmP8SClLRD5BfS2_E-120" value="" style="points=[[0.145,0.145,0],[0.5,0,0],[0.855,0.145,0],[1,0.5,0],[0.855,0.855,0],[0.5,1,0],[0.145,0.855,0],[0,0.5,0]];shape=mxgraph.bpmn.event;html=1;verticalLabelPosition=bottom;labelBackgroundColor=none;verticalAlign=top;align=center;perimeter=ellipsePerimeter;outlineConnect=0;aspect=fixed;outline=standard;symbol=message;" parent="IY3fmP8SClLRD5BfS2_E-19" vertex="1">
          <mxGeometry x="1114" y="67" width="44" height="44" as="geometry" />
        </mxCell>
        <mxCell id="IY3fmP8SClLRD5BfS2_E-122" value="Report Received" style="text;html=1;align=center;verticalAlign=middle;resizable=0;points=[];autosize=1;strokeColor=none;fillColor=none;labelBackgroundColor=none;" parent="IY3fmP8SClLRD5BfS2_E-19" vertex="1">
          <mxGeometry x="1031" y="18" width="105" height="26" as="geometry" />
        </mxCell>
        <mxCell id="IY3fmP8SClLRD5BfS2_E-130" value="" style="edgeStyle=orthogonalEdgeStyle;rounded=0;orthogonalLoop=1;jettySize=auto;html=1;entryX=0;entryY=0.5;entryDx=0;entryDy=0;entryPerimeter=0;labelBackgroundColor=none;fontColor=default;" parent="IY3fmP8SClLRD5BfS2_E-19" source="IY3fmP8SClLRD5BfS2_E-127" target="IY3fmP8SClLRD5BfS2_E-129" edge="1">
          <mxGeometry relative="1" as="geometry" />
        </mxCell>
        <mxCell id="IY3fmP8SClLRD5BfS2_E-127" value="Verify Authenticity" style="rounded=1;whiteSpace=wrap;html=1;labelBackgroundColor=none;" parent="IY3fmP8SClLRD5BfS2_E-19" vertex="1">
          <mxGeometry x="1221" y="59" width="120" height="60" as="geometry" />
        </mxCell>
        <mxCell id="IY3fmP8SClLRD5BfS2_E-137" value="" style="edgeStyle=orthogonalEdgeStyle;rounded=0;orthogonalLoop=1;jettySize=auto;html=1;labelBackgroundColor=none;fontColor=default;entryX=0;entryY=0.5;entryDx=0;entryDy=0;" parent="IY3fmP8SClLRD5BfS2_E-19" source="IY3fmP8SClLRD5BfS2_E-129" target="ojtFOfJ83OIl4kcFyT_g-4" edge="1">
          <mxGeometry relative="1" as="geometry" />
        </mxCell>
        <mxCell id="IY3fmP8SClLRD5BfS2_E-129" value="" style="points=[[0.25,0.25,0],[0.5,0,0],[0.75,0.25,0],[1,0.5,0],[0.75,0.75,0],[0.5,1,0],[0.25,0.75,0],[0,0.5,0]];shape=mxgraph.bpmn.gateway2;html=1;verticalLabelPosition=bottom;labelBackgroundColor=none;verticalAlign=top;align=center;perimeter=rhombusPerimeter;outlineConnect=0;outline=none;symbol=none;gwType=exclusive;" parent="IY3fmP8SClLRD5BfS2_E-19" vertex="1">
          <mxGeometry x="1404" y="64" width="50" height="50" as="geometry" />
        </mxCell>
        <mxCell id="IY3fmP8SClLRD5BfS2_E-131" value="Resources found" style="text;html=1;align=center;verticalAlign=middle;resizable=0;points=[];autosize=1;strokeColor=none;fillColor=none;labelBackgroundColor=none;" parent="IY3fmP8SClLRD5BfS2_E-19" vertex="1">
          <mxGeometry x="1319" y="4" width="108" height="26" as="geometry" />
        </mxCell>
        <mxCell id="IY3fmP8SClLRD5BfS2_E-136" value="Send Report to Hospital Admin Department" style="rounded=1;whiteSpace=wrap;html=1;labelBackgroundColor=none;" parent="IY3fmP8SClLRD5BfS2_E-19" vertex="1">
          <mxGeometry x="1545" y="170.5" width="120" height="60" as="geometry" />
        </mxCell>
        <mxCell id="IY3fmP8SClLRD5BfS2_E-138" value="Resources not found" style="text;html=1;align=center;verticalAlign=middle;resizable=0;points=[];autosize=1;strokeColor=none;fillColor=none;labelBackgroundColor=none;" parent="IY3fmP8SClLRD5BfS2_E-19" vertex="1">
          <mxGeometry x="1414" y="114" width="127" height="26" as="geometry" />
        </mxCell>
        <mxCell id="IY3fmP8SClLRD5BfS2_E-189" value="" style="shape=datastore;html=1;labelPosition=center;verticalLabelPosition=bottom;align=center;verticalAlign=top;labelBackgroundColor=none;" parent="IY3fmP8SClLRD5BfS2_E-19" vertex="1">
          <mxGeometry x="890" y="98" width="124" height="85" as="geometry" />
        </mxCell>
        <mxCell id="IY3fmP8SClLRD5BfS2_E-190" value="Security Camera&lt;br&gt;Databanks" style="text;html=1;align=center;verticalAlign=middle;resizable=0;points=[];autosize=1;strokeColor=none;fillColor=none;labelBackgroundColor=none;" parent="IY3fmP8SClLRD5BfS2_E-19" vertex="1">
          <mxGeometry x="899" y="129.5" width="107" height="41" as="geometry" />
        </mxCell>
        <mxCell id="IY3fmP8SClLRD5BfS2_E-193" value="" style="dashed=1;dashPattern=8 4;endArrow=blockThin;endFill=1;startArrow=oval;startFill=0;endSize=6;startSize=4;html=1;rounded=0;exitX=0.5;exitY=1;exitDx=0;exitDy=0;entryX=1;entryY=0.5;entryDx=0;entryDy=0;labelBackgroundColor=none;fontColor=default;" parent="IY3fmP8SClLRD5BfS2_E-19" source="IY3fmP8SClLRD5BfS2_E-127" target="IY3fmP8SClLRD5BfS2_E-189" edge="1">
          <mxGeometry width="160" relative="1" as="geometry">
            <mxPoint x="1149" y="136" as="sourcePoint" />
            <mxPoint x="1033" y="204" as="targetPoint" />
            <Array as="points">
              <mxPoint x="1281" y="139" />
            </Array>
          </mxGeometry>
        </mxCell>
        <mxCell id="IY3fmP8SClLRD5BfS2_E-226" value="" style="edgeStyle=orthogonalEdgeStyle;rounded=0;orthogonalLoop=1;jettySize=auto;html=1;labelBackgroundColor=none;fontColor=default;" parent="IY3fmP8SClLRD5BfS2_E-19" source="IY3fmP8SClLRD5BfS2_E-195" target="IY3fmP8SClLRD5BfS2_E-225" edge="1">
          <mxGeometry relative="1" as="geometry" />
        </mxCell>
        <mxCell id="IY3fmP8SClLRD5BfS2_E-195" value="Sends Issuance Order" style="rounded=1;whiteSpace=wrap;html=1;labelBackgroundColor=none;" parent="IY3fmP8SClLRD5BfS2_E-19" vertex="1">
          <mxGeometry x="511" y="64" width="120" height="60" as="geometry" />
        </mxCell>
        <mxCell id="IY3fmP8SClLRD5BfS2_E-198" value="Approval Document Received" style="text;html=1;align=center;verticalAlign=middle;resizable=0;points=[];autosize=1;strokeColor=none;fillColor=none;labelBackgroundColor=none;" parent="IY3fmP8SClLRD5BfS2_E-19" vertex="1">
          <mxGeometry x="665" y="41" width="172" height="26" as="geometry" />
        </mxCell>
        <mxCell id="IY3fmP8SClLRD5BfS2_E-230" value="" style="edgeStyle=orthogonalEdgeStyle;rounded=0;orthogonalLoop=1;jettySize=auto;html=1;labelBackgroundColor=none;fontColor=default;" parent="IY3fmP8SClLRD5BfS2_E-19" source="IY3fmP8SClLRD5BfS2_E-225" target="IY3fmP8SClLRD5BfS2_E-229" edge="1">
          <mxGeometry relative="1" as="geometry" />
        </mxCell>
        <mxCell id="IY3fmP8SClLRD5BfS2_E-225" value="" style="points=[[0.25,0.25,0],[0.5,0,0],[0.75,0.25,0],[1,0.5,0],[0.75,0.75,0],[0.5,1,0],[0.25,0.75,0],[0,0.5,0]];shape=mxgraph.bpmn.gateway2;html=1;verticalLabelPosition=bottom;labelBackgroundColor=none;verticalAlign=top;align=center;perimeter=rhombusPerimeter;outlineConnect=0;outline=none;symbol=none;gwType=parallel;" parent="IY3fmP8SClLRD5BfS2_E-19" vertex="1">
          <mxGeometry x="395" y="69" width="50" height="50" as="geometry" />
        </mxCell>
        <mxCell id="IY3fmP8SClLRD5BfS2_E-229" value="Send details of tender" style="rounded=1;whiteSpace=wrap;html=1;labelBackgroundColor=none;" parent="IY3fmP8SClLRD5BfS2_E-19" vertex="1">
          <mxGeometry x="188" y="64" width="120" height="60" as="geometry" />
        </mxCell>
        <mxCell id="IY3fmP8SClLRD5BfS2_E-234" value="Newspaper editor" style="text;html=1;align=center;verticalAlign=middle;resizable=0;points=[];autosize=1;strokeColor=none;fillColor=none;labelBackgroundColor=none;" parent="IY3fmP8SClLRD5BfS2_E-19" vertex="1">
          <mxGeometry x="313" y="46" width="109" height="26" as="geometry" />
        </mxCell>
        <mxCell id="ojtFOfJ83OIl4kcFyT_g-4" value="Send Report to Hospital Security Department" style="rounded=1;whiteSpace=wrap;html=1;labelBackgroundColor=none;" vertex="1" parent="IY3fmP8SClLRD5BfS2_E-19">
          <mxGeometry x="1554" y="59" width="120" height="60" as="geometry" />
        </mxCell>
        <mxCell id="IY3fmP8SClLRD5BfS2_E-133" value="" style="endArrow=classic;html=1;rounded=0;exitX=0.5;exitY=0;exitDx=0;exitDy=0;exitPerimeter=0;entryX=1;entryY=0.5;entryDx=0;entryDy=0;labelBackgroundColor=none;fontColor=default;" parent="IY3fmP8SClLRD5BfS2_E-16" source="IY3fmP8SClLRD5BfS2_E-129" target="IY3fmP8SClLRD5BfS2_E-108" edge="1">
          <mxGeometry width="50" height="50" relative="1" as="geometry">
            <mxPoint x="1137" y="732" as="sourcePoint" />
            <mxPoint x="1368" y="712" as="targetPoint" />
            <Array as="points">
              <mxPoint x="1449" y="702" />
            </Array>
          </mxGeometry>
        </mxCell>
        <mxCell id="IY3fmP8SClLRD5BfS2_E-176" value="" style="endArrow=classic;html=1;rounded=0;entryX=0.5;entryY=1;entryDx=0;entryDy=0;exitX=0.5;exitY=0;exitDx=0;exitDy=0;labelBackgroundColor=none;fontColor=default;" parent="IY3fmP8SClLRD5BfS2_E-16" source="IY3fmP8SClLRD5BfS2_E-108" target="IY3fmP8SClLRD5BfS2_E-37" edge="1">
          <mxGeometry width="50" height="50" relative="1" as="geometry">
            <mxPoint x="1194" y="757" as="sourcePoint" />
            <mxPoint x="1244" y="707" as="targetPoint" />
            <Array as="points">
              <mxPoint x="1132" y="604" />
              <mxPoint x="805" y="604" />
            </Array>
          </mxGeometry>
        </mxCell>
        <mxCell id="IY3fmP8SClLRD5BfS2_E-188" value="" style="edgeStyle=orthogonalEdgeStyle;rounded=0;orthogonalLoop=1;jettySize=auto;html=1;entryX=0.5;entryY=0;entryDx=0;entryDy=0;entryPerimeter=0;labelBackgroundColor=none;fontColor=default;" parent="IY3fmP8SClLRD5BfS2_E-16" source="IY3fmP8SClLRD5BfS2_E-123" target="IY3fmP8SClLRD5BfS2_E-120" edge="1">
          <mxGeometry relative="1" as="geometry" />
        </mxCell>
        <mxCell id="IY3fmP8SClLRD5BfS2_E-221" value="IT Department" style="swimlane;startSize=20;horizontal=0;html=1;whiteSpace=wrap;labelBackgroundColor=none;" parent="IY3fmP8SClLRD5BfS2_E-16" vertex="1">
          <mxGeometry x="20" y="1122" width="1993" height="227" as="geometry" />
        </mxCell>
        <mxCell id="IY3fmP8SClLRD5BfS2_E-222" value="Web Developer" style="swimlane;startSize=20;horizontal=0;html=1;whiteSpace=wrap;labelBackgroundColor=none;" parent="IY3fmP8SClLRD5BfS2_E-221" vertex="1">
          <mxGeometry x="21" width="1972" height="227" as="geometry" />
        </mxCell>
        <mxCell id="IY3fmP8SClLRD5BfS2_E-240" value="" style="edgeStyle=orthogonalEdgeStyle;rounded=0;orthogonalLoop=1;jettySize=auto;html=1;labelBackgroundColor=none;fontColor=default;" parent="IY3fmP8SClLRD5BfS2_E-222" source="IY3fmP8SClLRD5BfS2_E-236" target="IY3fmP8SClLRD5BfS2_E-239" edge="1">
          <mxGeometry relative="1" as="geometry" />
        </mxCell>
        <mxCell id="IY3fmP8SClLRD5BfS2_E-236" value="Update tender notice on hospital website" style="rounded=1;whiteSpace=wrap;html=1;labelBackgroundColor=none;" parent="IY3fmP8SClLRD5BfS2_E-222" vertex="1">
          <mxGeometry x="339" y="72" width="120" height="59" as="geometry" />
        </mxCell>
        <mxCell id="IY3fmP8SClLRD5BfS2_E-239" value="" style="points=[[0.145,0.145,0],[0.5,0,0],[0.855,0.145,0],[1,0.5,0],[0.855,0.855,0],[0.5,1,0],[0.145,0.855,0],[0,0.5,0]];shape=mxgraph.bpmn.event;html=1;verticalLabelPosition=bottom;labelBackgroundColor=none;verticalAlign=top;align=center;perimeter=ellipsePerimeter;outlineConnect=0;aspect=fixed;outline=end;symbol=terminate2;" parent="IY3fmP8SClLRD5BfS2_E-222" vertex="1">
          <mxGeometry x="564" y="76.5" width="50" height="50" as="geometry" />
        </mxCell>
        <mxCell id="IY3fmP8SClLRD5BfS2_E-241" value="tender issued" style="text;html=1;align=center;verticalAlign=middle;resizable=0;points=[];autosize=1;strokeColor=none;fillColor=none;labelBackgroundColor=none;" parent="IY3fmP8SClLRD5BfS2_E-222" vertex="1">
          <mxGeometry x="468" y="60" width="88" height="26" as="geometry" />
        </mxCell>
        <mxCell id="IY3fmP8SClLRD5BfS2_E-232" value="" style="edgeStyle=orthogonalEdgeStyle;rounded=0;orthogonalLoop=1;jettySize=auto;html=1;entryX=0.5;entryY=0;entryDx=0;entryDy=0;labelBackgroundColor=none;fontColor=default;" parent="IY3fmP8SClLRD5BfS2_E-16" source="IY3fmP8SClLRD5BfS2_E-225" target="IY3fmP8SClLRD5BfS2_E-236" edge="1">
          <mxGeometry relative="1" as="geometry">
            <mxPoint x="440" y="1199" as="targetPoint" />
          </mxGeometry>
        </mxCell>
        <mxCell id="IY3fmP8SClLRD5BfS2_E-46" value="" style="edgeStyle=orthogonalEdgeStyle;rounded=0;orthogonalLoop=1;jettySize=auto;html=1;labelBackgroundColor=none;fontColor=default;" parent="IY3fmP8SClLRD5BfS2_E-16" source="IY3fmP8SClLRD5BfS2_E-43" target="IY3fmP8SClLRD5BfS2_E-45" edge="1">
          <mxGeometry relative="1" as="geometry">
            <Array as="points">
              <mxPoint x="1008" y="242" />
            </Array>
          </mxGeometry>
        </mxCell>
        <mxCell id="IY3fmP8SClLRD5BfS2_E-48" value="" style="edgeStyle=orthogonalEdgeStyle;rounded=0;orthogonalLoop=1;jettySize=auto;html=1;labelBackgroundColor=none;fontColor=default;" parent="IY3fmP8SClLRD5BfS2_E-16" source="IY3fmP8SClLRD5BfS2_E-45" target="IY3fmP8SClLRD5BfS2_E-47" edge="1">
          <mxGeometry relative="1" as="geometry" />
        </mxCell>
        <mxCell id="IY3fmP8SClLRD5BfS2_E-92" value="Government" style="swimlane;startSize=20;horizontal=0;html=1;whiteSpace=wrap;labelBackgroundColor=none;" parent="1" vertex="1">
          <mxGeometry x="362" y="1858" width="2013" height="341" as="geometry" />
        </mxCell>
        <mxCell id="IY3fmP8SClLRD5BfS2_E-181" value="" style="edgeStyle=orthogonalEdgeStyle;rounded=0;orthogonalLoop=1;jettySize=auto;html=1;entryX=1;entryY=0.5;entryDx=0;entryDy=0;entryPerimeter=0;labelBackgroundColor=none;fontColor=default;" parent="IY3fmP8SClLRD5BfS2_E-92" source="IY3fmP8SClLRD5BfS2_E-140" target="IY3fmP8SClLRD5BfS2_E-159" edge="1">
          <mxGeometry relative="1" as="geometry">
            <mxPoint x="1550" y="157" as="targetPoint" />
          </mxGeometry>
        </mxCell>
        <mxCell id="IY3fmP8SClLRD5BfS2_E-140" value="" style="points=[[0.145,0.145,0],[0.5,0,0],[0.855,0.145,0],[1,0.5,0],[0.855,0.855,0],[0.5,1,0],[0.145,0.855,0],[0,0.5,0]];shape=mxgraph.bpmn.event;html=1;verticalLabelPosition=bottom;labelBackgroundColor=none;verticalAlign=top;align=center;perimeter=ellipsePerimeter;outlineConnect=0;aspect=fixed;outline=standard;symbol=message;" parent="IY3fmP8SClLRD5BfS2_E-92" vertex="1">
          <mxGeometry x="1598" y="135" width="44" height="44" as="geometry" />
        </mxCell>
        <mxCell id="IY3fmP8SClLRD5BfS2_E-142" value="Application Received" style="text;html=1;align=center;verticalAlign=middle;resizable=0;points=[];autosize=1;strokeColor=none;fillColor=none;labelBackgroundColor=none;" parent="IY3fmP8SClLRD5BfS2_E-92" vertex="1">
          <mxGeometry x="1642" y="144" width="126" height="26" as="geometry" />
        </mxCell>
        <mxCell id="IY3fmP8SClLRD5BfS2_E-164" value="" style="edgeStyle=orthogonalEdgeStyle;rounded=0;orthogonalLoop=1;jettySize=auto;html=1;labelBackgroundColor=none;fontColor=default;" parent="IY3fmP8SClLRD5BfS2_E-92" source="IY3fmP8SClLRD5BfS2_E-159" target="IY3fmP8SClLRD5BfS2_E-163" edge="1">
          <mxGeometry relative="1" as="geometry">
            <Array as="points">
              <mxPoint x="1489" y="66" />
            </Array>
          </mxGeometry>
        </mxCell>
        <mxCell id="IY3fmP8SClLRD5BfS2_E-168" value="" style="edgeStyle=orthogonalEdgeStyle;rounded=0;orthogonalLoop=1;jettySize=auto;html=1;entryX=0.5;entryY=0;entryDx=0;entryDy=0;entryPerimeter=0;labelBackgroundColor=none;fontColor=default;" parent="IY3fmP8SClLRD5BfS2_E-92" source="IY3fmP8SClLRD5BfS2_E-159" target="IY3fmP8SClLRD5BfS2_E-201" edge="1">
          <mxGeometry relative="1" as="geometry">
            <mxPoint x="1489" y="251" as="targetPoint" />
          </mxGeometry>
        </mxCell>
        <mxCell id="IY3fmP8SClLRD5BfS2_E-219" value="" style="edgeStyle=orthogonalEdgeStyle;rounded=0;orthogonalLoop=1;jettySize=auto;html=1;labelBackgroundColor=none;fontColor=default;" parent="IY3fmP8SClLRD5BfS2_E-92" source="IY3fmP8SClLRD5BfS2_E-159" target="IY3fmP8SClLRD5BfS2_E-218" edge="1">
          <mxGeometry relative="1" as="geometry" />
        </mxCell>
        <mxCell id="IY3fmP8SClLRD5BfS2_E-159" value="" style="points=[[0.25,0.25,0],[0.5,0,0],[0.75,0.25,0],[1,0.5,0],[0.75,0.75,0],[0.5,1,0],[0.25,0.75,0],[0,0.5,0]];shape=mxgraph.bpmn.gateway2;html=1;verticalLabelPosition=bottom;labelBackgroundColor=none;verticalAlign=top;align=center;perimeter=rhombusPerimeter;outlineConnect=0;outline=none;symbol=none;gwType=exclusive;" parent="IY3fmP8SClLRD5BfS2_E-92" vertex="1">
          <mxGeometry x="1464" y="133" width="50" height="50" as="geometry" />
        </mxCell>
        <mxCell id="IY3fmP8SClLRD5BfS2_E-163" value="Relay Approval" style="rounded=1;whiteSpace=wrap;html=1;labelBackgroundColor=none;" parent="IY3fmP8SClLRD5BfS2_E-92" vertex="1">
          <mxGeometry x="1228" y="30" width="120" height="60" as="geometry" />
        </mxCell>
        <mxCell id="IY3fmP8SClLRD5BfS2_E-183" value="Approved" style="text;html=1;align=center;verticalAlign=middle;resizable=0;points=[];autosize=1;strokeColor=none;fillColor=none;labelBackgroundColor=none;" parent="IY3fmP8SClLRD5BfS2_E-92" vertex="1">
          <mxGeometry x="1493" y="53" width="67" height="26" as="geometry" />
        </mxCell>
        <mxCell id="IY3fmP8SClLRD5BfS2_E-201" value="" style="points=[[0.145,0.145,0],[0.5,0,0],[0.855,0.145,0],[1,0.5,0],[0.855,0.855,0],[0.5,1,0],[0.145,0.855,0],[0,0.5,0]];shape=mxgraph.bpmn.event;html=1;verticalLabelPosition=bottom;labelBackgroundColor=none;verticalAlign=top;align=center;perimeter=ellipsePerimeter;outlineConnect=0;aspect=fixed;outline=standard;symbol=timer;" parent="IY3fmP8SClLRD5BfS2_E-92" vertex="1">
          <mxGeometry x="1464" y="242" width="50" height="50" as="geometry" />
        </mxCell>
        <mxCell id="IY3fmP8SClLRD5BfS2_E-203" value="No response" style="text;html=1;align=center;verticalAlign=middle;resizable=0;points=[];autosize=1;strokeColor=none;fillColor=none;labelBackgroundColor=none;" parent="IY3fmP8SClLRD5BfS2_E-92" vertex="1">
          <mxGeometry x="1499" y="200" width="84" height="26" as="geometry" />
        </mxCell>
        <mxCell id="IY3fmP8SClLRD5BfS2_E-204" value="6 month" style="text;html=1;align=center;verticalAlign=middle;resizable=0;points=[];autosize=1;strokeColor=none;fillColor=none;labelBackgroundColor=none;" parent="IY3fmP8SClLRD5BfS2_E-92" vertex="1">
          <mxGeometry x="1401" y="254" width="60" height="26" as="geometry" />
        </mxCell>
        <mxCell id="IY3fmP8SClLRD5BfS2_E-218" value="" style="points=[[0.145,0.145,0],[0.5,0,0],[0.855,0.145,0],[1,0.5,0],[0.855,0.855,0],[0.5,1,0],[0.145,0.855,0],[0,0.5,0]];shape=mxgraph.bpmn.event;html=1;verticalLabelPosition=bottom;labelBackgroundColor=none;verticalAlign=top;align=center;perimeter=ellipsePerimeter;outlineConnect=0;aspect=fixed;outline=end;symbol=terminate2;" parent="IY3fmP8SClLRD5BfS2_E-92" vertex="1">
          <mxGeometry x="1260" y="132" width="50" height="50" as="geometry" />
        </mxCell>
        <mxCell id="IY3fmP8SClLRD5BfS2_E-220" value="Not approved" style="text;html=1;align=center;verticalAlign=middle;resizable=0;points=[];autosize=1;strokeColor=none;fillColor=none;labelBackgroundColor=none;" parent="IY3fmP8SClLRD5BfS2_E-92" vertex="1">
          <mxGeometry x="1377" y="132" width="87" height="26" as="geometry" />
        </mxCell>
        <mxCell id="IY3fmP8SClLRD5BfS2_E-94" value="Newspaper Editors" style="swimlane;startSize=20;horizontal=0;html=1;whiteSpace=wrap;labelBackgroundColor=none;" parent="1" vertex="1">
          <mxGeometry x="362" y="2236" width="2012" height="235" as="geometry" />
        </mxCell>
        <mxCell id="IY3fmP8SClLRD5BfS2_E-249" value="" style="edgeStyle=orthogonalEdgeStyle;rounded=0;orthogonalLoop=1;jettySize=auto;html=1;labelBackgroundColor=none;fontColor=default;" parent="IY3fmP8SClLRD5BfS2_E-94" source="IY3fmP8SClLRD5BfS2_E-242" target="IY3fmP8SClLRD5BfS2_E-248" edge="1">
          <mxGeometry relative="1" as="geometry" />
        </mxCell>
        <mxCell id="IY3fmP8SClLRD5BfS2_E-242" value="" style="points=[[0.145,0.145,0],[0.5,0,0],[0.855,0.145,0],[1,0.5,0],[0.855,0.855,0],[0.5,1,0],[0.145,0.855,0],[0,0.5,0]];shape=mxgraph.bpmn.event;html=1;verticalLabelPosition=bottom;labelBackgroundColor=none;verticalAlign=top;align=center;perimeter=ellipsePerimeter;outlineConnect=0;aspect=fixed;outline=standard;symbol=message;" parent="IY3fmP8SClLRD5BfS2_E-94" vertex="1">
          <mxGeometry x="237" y="66" width="50" height="50" as="geometry" />
        </mxCell>
        <mxCell id="IY3fmP8SClLRD5BfS2_E-251" value="" style="edgeStyle=orthogonalEdgeStyle;rounded=0;orthogonalLoop=1;jettySize=auto;html=1;entryX=0;entryY=0.5;entryDx=0;entryDy=0;entryPerimeter=0;labelBackgroundColor=none;fontColor=default;" parent="IY3fmP8SClLRD5BfS2_E-94" source="IY3fmP8SClLRD5BfS2_E-248" target="IY3fmP8SClLRD5BfS2_E-263" edge="1">
          <mxGeometry relative="1" as="geometry">
            <mxPoint x="627" y="91" as="targetPoint" />
          </mxGeometry>
        </mxCell>
        <mxCell id="IY3fmP8SClLRD5BfS2_E-248" value="Issues Tender in Newspaper" style="rounded=1;whiteSpace=wrap;html=1;labelBackgroundColor=none;" parent="IY3fmP8SClLRD5BfS2_E-94" vertex="1">
          <mxGeometry x="379" y="61" width="120" height="60" as="geometry" />
        </mxCell>
        <mxCell id="IY3fmP8SClLRD5BfS2_E-252" value="tender issued" style="text;html=1;align=center;verticalAlign=middle;resizable=0;points=[];autosize=1;strokeColor=none;fillColor=none;labelBackgroundColor=none;" parent="IY3fmP8SClLRD5BfS2_E-94" vertex="1">
          <mxGeometry x="519" y="46" width="88" height="26" as="geometry" />
        </mxCell>
        <mxCell id="IY3fmP8SClLRD5BfS2_E-263" value="" style="points=[[0.145,0.145,0],[0.5,0,0],[0.855,0.145,0],[1,0.5,0],[0.855,0.855,0],[0.5,1,0],[0.145,0.855,0],[0,0.5,0]];shape=mxgraph.bpmn.event;html=1;verticalLabelPosition=bottom;labelBackgroundColor=none;verticalAlign=top;align=center;perimeter=ellipsePerimeter;outlineConnect=0;aspect=fixed;outline=end;symbol=terminate2;" parent="IY3fmP8SClLRD5BfS2_E-94" vertex="1">
          <mxGeometry x="646" y="66" width="50" height="50" as="geometry" />
        </mxCell>
        <mxCell id="IY3fmP8SClLRD5BfS2_E-199" value="" style="edgeStyle=orthogonalEdgeStyle;rounded=0;orthogonalLoop=1;jettySize=auto;html=1;labelBackgroundColor=none;fontColor=default;" parent="1" source="IY3fmP8SClLRD5BfS2_E-196" target="IY3fmP8SClLRD5BfS2_E-195" edge="1">
          <mxGeometry relative="1" as="geometry" />
        </mxCell>
        <mxCell id="IY3fmP8SClLRD5BfS2_E-196" value="" style="points=[[0.145,0.145,0],[0.5,0,0],[0.855,0.145,0],[1,0.5,0],[0.855,0.855,0],[0.5,1,0],[0.145,0.855,0],[0,0.5,0]];shape=mxgraph.bpmn.event;html=1;verticalLabelPosition=bottom;labelBackgroundColor=none;verticalAlign=top;align=center;perimeter=ellipsePerimeter;outlineConnect=0;aspect=fixed;outline=standard;symbol=message;" parent="1" vertex="1">
          <mxGeometry x="1107" y="1412" width="44" height="44" as="geometry" />
        </mxCell>
        <mxCell id="IY3fmP8SClLRD5BfS2_E-233" value="IT department" style="text;html=1;align=center;verticalAlign=middle;resizable=0;points=[];autosize=1;strokeColor=none;fillColor=none;labelBackgroundColor=none;" parent="1" vertex="1">
          <mxGeometry x="801" y="1472" width="90" height="26" as="geometry" />
        </mxCell>
        <mxCell id="IY3fmP8SClLRD5BfS2_E-245" value="receive tender details" style="text;html=1;align=center;verticalAlign=middle;resizable=0;points=[];autosize=1;strokeColor=none;fillColor=none;labelBackgroundColor=none;" parent="1" vertex="1">
          <mxGeometry x="482" y="2292" width="128" height="26" as="geometry" />
        </mxCell>
        <mxCell id="IY3fmP8SClLRD5BfS2_E-265" value="" style="dashed=1;dashPattern=8 4;endArrow=blockThin;endFill=1;startArrow=oval;startFill=0;endSize=6;startSize=4;html=1;rounded=0;exitX=0.5;exitY=1;exitDx=0;exitDy=0;entryX=0.5;entryY=0;entryDx=0;entryDy=0;entryPerimeter=0;labelBackgroundColor=none;fontColor=default;" parent="1" source="IY3fmP8SClLRD5BfS2_E-229" target="IY3fmP8SClLRD5BfS2_E-242" edge="1">
          <mxGeometry width="160" relative="1" as="geometry">
            <mxPoint x="935" y="2003" as="sourcePoint" />
            <mxPoint x="1095" y="2003" as="targetPoint" />
          </mxGeometry>
        </mxCell>
        <mxCell id="IY3fmP8SClLRD5BfS2_E-266" value="" style="dashed=1;dashPattern=8 4;endArrow=blockThin;endFill=1;startArrow=oval;startFill=0;endSize=6;startSize=4;html=1;rounded=0;entryX=0.5;entryY=1;entryDx=0;entryDy=0;entryPerimeter=0;exitX=0;exitY=0.5;exitDx=0;exitDy=0;labelBackgroundColor=none;fontColor=default;" parent="1" source="IY3fmP8SClLRD5BfS2_E-163" target="IY3fmP8SClLRD5BfS2_E-196" edge="1">
          <mxGeometry width="160" relative="1" as="geometry">
            <mxPoint x="1522" y="1932" as="sourcePoint" />
            <mxPoint x="1585" y="1833" as="targetPoint" />
            <Array as="points">
              <mxPoint x="1129" y="1918" />
            </Array>
          </mxGeometry>
        </mxCell>
        <mxCell id="IY3fmP8SClLRD5BfS2_E-267" value="" style="dashed=1;dashPattern=8 4;endArrow=blockThin;endFill=1;startArrow=oval;startFill=0;endSize=6;startSize=4;html=1;rounded=0;exitX=0.5;exitY=1;exitDx=0;exitDy=0;entryX=0.5;entryY=0;entryDx=0;entryDy=0;entryPerimeter=0;labelBackgroundColor=none;fontColor=default;" parent="1" source="IY3fmP8SClLRD5BfS2_E-136" target="IY3fmP8SClLRD5BfS2_E-140" edge="1">
          <mxGeometry width="160" relative="1" as="geometry">
            <mxPoint x="1907" y="1833" as="sourcePoint" />
            <mxPoint x="2067" y="1833" as="targetPoint" />
          </mxGeometry>
        </mxCell>
        <mxCell id="IY3fmP8SClLRD5BfS2_E-268" value="" style="dashed=1;dashPattern=8 4;endArrow=blockThin;endFill=1;startArrow=oval;startFill=0;endSize=6;startSize=4;html=1;rounded=0;exitX=1;exitY=0.5;exitDx=0;exitDy=0;exitPerimeter=0;entryX=1;entryY=0.5;entryDx=0;entryDy=0;labelBackgroundColor=none;fontColor=default;" parent="1" source="IY3fmP8SClLRD5BfS2_E-201" target="IY3fmP8SClLRD5BfS2_E-136" edge="1">
          <mxGeometry width="160" relative="1" as="geometry">
            <mxPoint x="1867" y="1751" as="sourcePoint" />
            <mxPoint x="2027" y="1751" as="targetPoint" />
            <Array as="points">
              <mxPoint x="2236" y="2125" />
              <mxPoint x="2236" y="1540" />
            </Array>
          </mxGeometry>
        </mxCell>
        <mxCell id="ojtFOfJ83OIl4kcFyT_g-1" value="&lt;font style=&quot;font-size: 18px;&quot;&gt;Security Departmennt&lt;/font&gt;" style="swimlane;whiteSpace=wrap;html=1;startSize=23;" vertex="1" parent="1">
          <mxGeometry x="2425" y="474" width="425" height="1996" as="geometry" />
        </mxCell>
        <mxCell id="ojtFOfJ83OIl4kcFyT_g-7" style="edgeStyle=orthogonalEdgeStyle;rounded=0;orthogonalLoop=1;jettySize=auto;html=1;exitX=0.5;exitY=1;exitDx=0;exitDy=0;entryX=0.5;entryY=0;entryDx=0;entryDy=0;entryPerimeter=0;" edge="1" parent="ojtFOfJ83OIl4kcFyT_g-1" source="ojtFOfJ83OIl4kcFyT_g-5" target="ojtFOfJ83OIl4kcFyT_g-6">
          <mxGeometry relative="1" as="geometry" />
        </mxCell>
        <mxCell id="ojtFOfJ83OIl4kcFyT_g-5" value="Investigation &lt;br&gt;Launched" style="rounded=1;whiteSpace=wrap;html=1;labelBackgroundColor=none;" vertex="1" parent="ojtFOfJ83OIl4kcFyT_g-1">
          <mxGeometry x="141" y="722" width="120" height="60" as="geometry" />
        </mxCell>
        <mxCell id="ojtFOfJ83OIl4kcFyT_g-14" style="edgeStyle=orthogonalEdgeStyle;rounded=0;orthogonalLoop=1;jettySize=auto;html=1;" edge="1" parent="ojtFOfJ83OIl4kcFyT_g-1" source="ojtFOfJ83OIl4kcFyT_g-6" target="ojtFOfJ83OIl4kcFyT_g-8">
          <mxGeometry relative="1" as="geometry" />
        </mxCell>
        <mxCell id="ojtFOfJ83OIl4kcFyT_g-15" style="edgeStyle=orthogonalEdgeStyle;rounded=0;orthogonalLoop=1;jettySize=auto;html=1;" edge="1" parent="ojtFOfJ83OIl4kcFyT_g-1" source="ojtFOfJ83OIl4kcFyT_g-6" target="ojtFOfJ83OIl4kcFyT_g-9">
          <mxGeometry relative="1" as="geometry">
            <Array as="points">
              <mxPoint x="116" y="861" />
            </Array>
          </mxGeometry>
        </mxCell>
        <mxCell id="ojtFOfJ83OIl4kcFyT_g-6" value="" style="points=[[0.25,0.25,0],[0.5,0,0],[0.75,0.25,0],[1,0.5,0],[0.75,0.75,0],[0.5,1,0],[0.25,0.75,0],[0,0.5,0]];shape=mxgraph.bpmn.gateway2;html=1;verticalLabelPosition=bottom;labelBackgroundColor=none;verticalAlign=top;align=center;perimeter=rhombusPerimeter;outlineConnect=0;outline=none;symbol=none;gwType=exclusive;" vertex="1" parent="ojtFOfJ83OIl4kcFyT_g-1">
          <mxGeometry x="176" y="836" width="50" height="50" as="geometry" />
        </mxCell>
        <mxCell id="ojtFOfJ83OIl4kcFyT_g-9" value="Fraudulent Report Case Dropped" style="rounded=1;whiteSpace=wrap;html=1;labelBackgroundColor=none;" vertex="1" parent="ojtFOfJ83OIl4kcFyT_g-1">
          <mxGeometry x="56" y="956" width="120" height="60" as="geometry" />
        </mxCell>
        <mxCell id="ojtFOfJ83OIl4kcFyT_g-12" value="" style="edgeStyle=orthogonalEdgeStyle;rounded=0;orthogonalLoop=1;jettySize=auto;html=1;entryX=0.5;entryY=0;entryDx=0;entryDy=0;entryPerimeter=0;" edge="1" parent="ojtFOfJ83OIl4kcFyT_g-1" source="ojtFOfJ83OIl4kcFyT_g-8" target="ojtFOfJ83OIl4kcFyT_g-13">
          <mxGeometry relative="1" as="geometry">
            <mxPoint x="301" y="1086" as="targetPoint" />
          </mxGeometry>
        </mxCell>
        <mxCell id="ojtFOfJ83OIl4kcFyT_g-8" value="Arrest Perpetrators" style="rounded=1;whiteSpace=wrap;html=1;labelBackgroundColor=none;" vertex="1" parent="ojtFOfJ83OIl4kcFyT_g-1">
          <mxGeometry x="241" y="956" width="120" height="60" as="geometry" />
        </mxCell>
        <mxCell id="ojtFOfJ83OIl4kcFyT_g-13" value="" style="points=[[0.145,0.145,0],[0.5,0,0],[0.855,0.145,0],[1,0.5,0],[0.855,0.855,0],[0.5,1,0],[0.145,0.855,0],[0,0.5,0]];shape=mxgraph.bpmn.event;html=1;verticalLabelPosition=bottom;labelBackgroundColor=none;verticalAlign=top;align=center;perimeter=ellipsePerimeter;outlineConnect=0;aspect=fixed;outline=end;symbol=terminate2;" vertex="1" parent="ojtFOfJ83OIl4kcFyT_g-1">
          <mxGeometry x="276" y="1094" width="50" height="50" as="geometry" />
        </mxCell>
        <mxCell id="ojtFOfJ83OIl4kcFyT_g-16" value="Theft proven" style="text;html=1;align=center;verticalAlign=middle;resizable=0;points=[];autosize=1;strokeColor=none;fillColor=none;" vertex="1" parent="1">
          <mxGeometry x="2724" y="1315" width="85" height="26" as="geometry" />
        </mxCell>
        <mxCell id="ojtFOfJ83OIl4kcFyT_g-17" value="Theft Not proven" style="text;html=1;align=center;verticalAlign=middle;resizable=0;points=[];autosize=1;strokeColor=none;fillColor=none;" vertex="1" parent="1">
          <mxGeometry x="2453" y="1311" width="107" height="26" as="geometry" />
        </mxCell>
        <mxCell id="ojtFOfJ83OIl4kcFyT_g-18" value="" style="dashed=1;dashPattern=8 4;endArrow=blockThin;endFill=1;startArrow=oval;startFill=0;endSize=6;startSize=4;html=1;rounded=0;exitX=1;exitY=0.5;exitDx=0;exitDy=0;entryX=0;entryY=0.5;entryDx=0;entryDy=0;labelBackgroundColor=none;fontColor=default;" edge="1" parent="1" source="ojtFOfJ83OIl4kcFyT_g-4" target="ojtFOfJ83OIl4kcFyT_g-5">
          <mxGeometry width="160" relative="1" as="geometry">
            <mxPoint x="1994" y="1580" as="sourcePoint" />
            <mxPoint x="1992" y="2003" as="targetPoint" />
            <Array as="points">
              <mxPoint x="2398" y="1428" />
              <mxPoint x="2398" y="1226" />
            </Array>
          </mxGeometry>
        </mxCell>
        <mxCell id="ojtFOfJ83OIl4kcFyT_g-19" value="" style="dashed=1;dashPattern=8 4;endArrow=blockThin;endFill=1;startArrow=oval;startFill=0;endSize=6;startSize=4;html=1;rounded=0;exitX=0;exitY=0.5;exitDx=0;exitDy=0;entryX=1;entryY=0.25;entryDx=0;entryDy=0;labelBackgroundColor=none;fontColor=default;" edge="1" parent="1" source="ojtFOfJ83OIl4kcFyT_g-9" target="IY3fmP8SClLRD5BfS2_E-136">
          <mxGeometry width="160" relative="1" as="geometry">
            <mxPoint x="1994" y="1580" as="sourcePoint" />
            <mxPoint x="1992" y="2003" as="targetPoint" />
            <Array as="points">
              <mxPoint x="2402" y="1460" />
              <mxPoint x="2402" y="1525" />
            </Array>
          </mxGeometry>
        </mxCell>
      </root>
    </mxGraphModel>
  </diagram>
</mxfile>
